<svg xmlns="http://www.w3.org/2000/svg" xmlns:xlink="http://www.w3.org/1999/xlink" width="28" height="11" viewBox="0 0 28 11"><defs><path id="6znna" d="M1409.366 1027.014c.09-.473.595-.866 1.121-.866.527 0 .884.393.78.866-.088.486-.594.88-1.12.88-.541 0-.884-.394-.781-.88zm8.449 6.049c-.4.415-.951.736-1.699.736-1.096 0-1.312-.676-1.312-1.199 0-.69.589-2.264.627-2.703.035-.398-.264-.603-.609-.603-.727 0-1.244.496-1.453 1.247l-.828 2.929c-.038.144-.11.21-.294.21h-1.058c-.171 0-.217-.115-.179-.245l.11-.386c-.438.42-1.012.75-1.736.75-.94 0-1.28-.515-1.28-1.197 0-.383.246-1.196.47-1.996.309-1.101.6-2.09.6-2.09.04-.123.107-.211.294-.211h1.035c.177 0 .238.107.204.23-.027.097-.274.922-.555 1.923-.23.823-.424 1.486-.424 1.755 0 .311.144.493.47.493.632 0 1.223-.717 1.466-1.575l.74-2.605c.031-.117.092-.221.31-.221h1.03c.163 0 .23.11.198.222-.03.106-.119.382-.119.382.292-.337.98-.721 1.642-.721 1.052 0 1.565.497 1.565 1.356 0 .643-.62 2.06-.62 2.626 0 .36.156.527.526.527a.651.651 0 0 0 .401-.151zm-9.307-5.428c0 2.484-1.539 4.34-3.807 4.34-.762 0-1.478-.37-1.723-.79 0 0-.41 1.459-.497 1.74-.305.995-1.204 1.99-1.273 2.073-.049.056-.157.039-.168-.036-.02-.128-.249-1.383.021-2.408l.908-3.45s-.225-.403-.225-1c0-.939.606-1.64 1.36-1.64.642 0 .952.432.952.95 0 .58-.411 1.446-.623 2.247-.177.673.375 1.22 1.114 1.22 1.336 0 2.236-1.541 2.236-3.366 0-1.388-1.04-2.427-2.935-2.427-2.14 0-3.474 1.432-3.474 3.033 0 .551.181.94.466 1.241.13.139.148.194.101.354-.034.116-.112.396-.144.507-.047.161-.192.219-.353.158-.986-.36-1.445-1.329-1.445-2.418 0-1.798 1.69-3.955 5.042-3.955 2.694 0 4.467 1.748 4.467 3.627zm12.282-.618c.09-.47.592-.863 1.117-.863.524 0 .88.392.776.863-.088.484-.59.875-1.115.875-.539 0-.88-.391-.778-.875zm5.914 5.509c-.418.63-1.128 1.257-2.306 1.257-.709 0-1.095-.296-1.241-.734-.399.413-.92.723-1.665.723-.935 0-1.959-.512-1.959-1.192 0-.381.247-1.191.47-1.986.306-1.097.596-2.082.596-2.082.04-.122.106-.21.293-.21h1.03c.177 0 .238.107.203.23-.026.097-.272.917-.552 1.914-.23.819-.422 1.48-.422 1.747 0 .31.501.493.824.493.618 0 1.3-1.017 1.413-1.451.24-.904.535-1.912.54-1.933h-.834c-.15 0-.228-.092-.193-.214.026-.092.121-.43.173-.624.036-.134.13-.194.29-.194h.851l.434-1.566c.055-.198.174-.273.326-.3.152-.03.971-.173.971-.173.174-.032.34.07.292.248-.011.045-.5 1.791-.5 1.791h1.06c.151 0 .229.092.194.213-.027.094-.121.43-.173.625-.036.135-.13.194-.29.194h-1.079l-.323 1.155c-.23.82-.44 1.472-.44 1.74 0 .309.181.492.504.492.348 0 .682-.246.933-.574z"/></defs><g><g transform="translate(-1399 -1024)"><use fill="#c8232c" xlink:href="#6znna"/></g></g></svg>